<?xml version="1.0" encoding="UTF-8"?>
<svg xmlns="http://www.w3.org/2000/svg" xmlns:xlink="http://www.w3.org/1999/xlink" width="48px" height="48px" viewBox="0 0 48 48" version="1.1">
<g id="surface1">
<path style="fill-rule:nonzero;fill:rgb(98.823529%,76.862745%,9.803922%);fill-opacity:1;stroke-width:1;stroke-linecap:butt;stroke-linejoin:miter;stroke:rgb(98.823529%,76.862745%,9.803922%);stroke-opacity:1;stroke-miterlimit:4;" d="M 155.1425 0 C 69.591916 0 0 69.591916 0 155.1425 C 0 240.693084 69.591916 310.285 155.1425 310.285 C 240.693084 310.285 310.285 240.693084 310.285 155.1425 C 310.285 69.591916 240.693084 0 155.1425 0 Z M 244.152479 171.505186 C 244.152479 175.89887 240.541578 179.509771 236.147894 179.509771 L 73.152315 179.509771 C 68.73338 179.509771 65.147729 175.89887 65.147729 171.505186 L 65.147729 139.486844 C 65.147729 135.09316 68.73338 131.50751 73.152315 131.50751 L 236.147894 131.50751 C 240.541578 131.50751 244.152479 135.09316 244.152479 139.486844 Z M 244.152479 171.505186 " transform="matrix(0.154696,0,0,0.154696,0,0)"/>
</g>
</svg>
